<!-- Created with Inkscape (http://www.inkscape.org/) -->
<svg xmlns:rdf="http://www.w3.org/1999/02/22-rdf-syntax-ns#" xmlns="http://www.w3.org/2000/svg" xml:space="preserve" height="389.95" width="300" version="1.1" xmlns:cc="http://creativecommons.org/ns#" xmlns:dc="http://purl.org/dc/elements/1.1/"><metadata><rdf:RDF><cc:Work rdf:about=""><dc:format>image/svg+xml</dc:format><dc:type rdf:resource="http://purl.org/dc/dcmitype/StillImage"/><dc:title/></cc:Work></rdf:RDF></metadata><defs/><g transform="matrix(1.25,0,0,-1.25,-114.12933,514.05007)"><g transform="matrix(9.9206931,0,0,9.9206931,-125.96984,-5316.1088)"><path fill-rule="nonzero" fill="#FFF" d="m33.996,546.03-4.0919,2.2231s-3.0172,1.9242-3.6215,2.5221c-0.6011,0.5974-4.2205,3.9741-4.2205,8.2083v18.169h11.934,11.935v-18.169c0-4.2342-3.6202-7.6109-4.2226-8.2083-0.6035-0.5979-3.6175-2.5221-3.6175-2.5221"/><path fill-rule="nonzero" fill="#3d7bc2" d="m22.788,576.33,22.418,0,0-7.4037-22.418,0"/><path fill-rule="nonzero" fill="#FFF" d="m45.206,568.93-22.418,0,0-9.8722,0-0.8719,0.1813-0.7074,0.3045-1.0916,0.4448-1.0129,0.5276-0.9098,0.6465-0.99,0.5871-0.7493,0.6677-0.7476,0.6061-0.6087,1.0119-0.7679,0.9502-0.6679,1.2156-0.829,4.0649-2.2274,4.1081,2.2696,0.7662,0.504,0.6889,0.465,0.6898,0.4857,0.4229,0.2836,0.5664,0.4843,0.4677,0.5057,0.4246,0.464,0.4448,0.5084,0.4446,0.5856,0.4053,0.5678,0.484,0.7674,0.2439,0.4682,0.2847,0.5851,0.2383,0.5873,0.3083,1.0492,0.1791,1.3361"/><path fill-rule="nonzero" fill="#f03c1f" d="m30.435,568.93,7.1239,0,0-5.8662,7.6046,0,0-4.6928-0.1793-1.0347-0.1641-0.5445-0.2624-0.5276-6.9988,0,0-7.4023-3.6441-1.9855-3.4798,1.9018,0,7.486-7.0823,0-0.3616,1.0129-0.2034,0.7078,0,1.1535,0,3.9254,7.6473,0"/><path stroke-linejoin="miter" d="m22.788,568.93,22.376,0" stroke="#231f20" stroke-linecap="butt" stroke-miterlimit="3.86400008" stroke-dasharray="none" stroke-width="0.31869999" fill="none"/><path stroke-linejoin="miter" d="m33.996,546.87-3.8442,2.1049s-2.8297,1.8219-3.3984,2.387c-0.5673,0.5686-3.9656,3.7646-3.9656,7.7703v17.195h11.208,11.21v-17.195c0-4.0057-3.3982-7.2017-3.9679-7.7703-0.5666-0.5651-3.3975-2.387-3.3975-2.387l-3.8447-2.1049z" stroke="#231f20" stroke-linecap="butt" stroke-miterlimit="3.86400008" stroke-dasharray="none" stroke-width="0.4251" fill="none"/><path fill-rule="nonzero" fill="#231f20" d="m31.923,556.87,0.4185,0.1957s0.09,0.0235,0.1045-0.0286c0.0144-0.047,0.0539-0.165,0.0633-0.3067,0.0087-0.1447,0.0965-0.3254,0.2525-0.408,0.3964-0.214,1.0482-0.1541,1.1433-0.1252,0.0965-0.037,0.7564-0.0888,1.1622,0.1038,0.16,0.0736,0.2587,0.2527,0.2746,0.3954,0.0159,0.1435,0.0633,0.2586,0.0792,0.3045,0.0166,0.0501,0.1066,0.0219,0.1066,0.0219l0.4085-0.2185-0.0445,0.433s0.0041,0.0919,0.0577,0.0919c0.0506,0,0.1743,0.003,0.3127-0.037,0.1391-0.0323,0.3377-0.006,0.4682,0.1155,0.3223,0.3095,0.4684,0.9481,0.4693,1.0502,0.0626,0.0787,0.318,0.6908,0.261,1.1385-0.0222,0.1733-0.1579,0.323-0.2896,0.3798-0.1331,0.0614-0.2284,0.1401-0.2672,0.1716-0.0394,0.0323,0.0135,0.1086,0.0135,0.1086l0.3331,0.3192-0.4592,0.0873s-0.0891,0.0352-0.0732,0.0828c0.0188,0.0467,0.0542,0.1651,0.1336,0.285,0.0775,0.1199,0.1126,0.318,0.0363,0.4778-0.1988,0.4025-0.769,0.7378-0.8672,0.77-0.0568,0.0833-0.5685,0.5155-1.0182,0.5981-0.1764,0.0324-0.3632-0.053-0.4599-0.1584-0.0997-0.1076-0.2057-0.1733-0.2482-0.201-0.042-0.0246-0.0999,0.0472-0.0999,0.0472l-0.2039,0.4181-0.2231-0.4042s-0.0611-0.071-0.1021-0.0402c-0.0389,0.0284-0.142,0.0997-0.2311,0.2126-0.0912,0.1095-0.2715,0.2051-0.4479,0.1819-0.4424-0.0613-0.9344-0.4926-0.9945-0.5732-0.0981-0.0284-0.6647-0.3719-0.8799-0.7664-0.0857-0.157-0.0625-0.3557,0.0094-0.4799,0.0705-0.1264,0.1009-0.2463,0.1146-0.2959,0.014-0.0459-0.0732-0.0804-0.0732-0.0804l-0.4527-0.0606,0.3162-0.337s0.0469-0.0799,0.0049-0.1085c-0.0409-0.0306-0.1385-0.1036-0.2732-0.1574-0.1327-0.0513-0.2792-0.1938-0.3105-0.3664-0.0792-0.4414,0.1778-1.0411,0.2361-1.1265-0.0053-0.1006,0.1498-0.7442,0.4569-1.0721,0.122-0.1302,0.3197-0.1675,0.4616-0.1376,0.1399,0.0271,0.2646,0.0171,0.3122,0.0171,0.0523-0.002,0.0569-0.0956,0.0569-0.0956"/><path fill-rule="nonzero" fill="#FFF" d="m33.99,558.37s-0.1569,0.006-0.1964-0.1374c-0.0429-0.1425,0.0633-0.2732-0.0395-0.3471-0.1054-0.0754-0.0657-0.1396-0.2082-0.0977-0.1449,0.0438-0.1954,0.1123-0.2383,0.2229-0.0491,0.1102-0.1406,0.1894-0.2674,0.27-0.1184,0.0965-0.2214,0.1598-0.3387,0.1726-0.1187,0.008-0.1945,0.0383-0.283,0.163-0.0824,0.1251-0.0602,0.0332,0,0.2033,0.0584,0.1647,0.2182,0.0783,0.3427,0.162,0.124,0.0864,0.0831,0.2528,0.0831,0.2528s-0.1006,0.1817-0.2485,0.1769c-0.1504-0.005-0.2375-0.145-0.3427-0.0688-0.1021,0.0755-0.1529,0.018-0.1577,0.1696-0.0055,0.1478,0.0491,0.2171,0.1394,0.2939,0.0886,0.0753,0.1346,0.1887,0.1725,0.3372,0.0572,0.1411,0.0831,0.2576,0.0585,0.3734-0.0273,0.116-0.0204,0.1971,0.0696,0.3167,0.0935,0.1187,0.0145,0.0698,0.1923,0.0677,0.1765-0.006,0.1416-0.1873,0.2617-0.2769,0.1196-0.0919,0.2614-0.002,0.2614-0.002s0.1512,0.1193,0.0997,0.2616c-0.0482,0.1418-0.2121,0.1817-0.1727,0.3047,0.043,0.1191-0.0284,0.1509,0.1108,0.2005,0.1449,0.0501,0.2234,0.0203,0.3261-0.0368,0.0994-0.0633,0.2214-0.0725,0.3753-0.0633,0.1488-0.009,0.2737,0,0.3733,0.0633,0.0996,0.0571,0.1819,0.0782,0.3244,0.0281,0.1406-0.0512,0.0713,0.009,0.1199-0.1617,0.0493-0.1704-0.1309-0.193-0.1825-0.3348-0.0498-0.1423,0.0816-0.2542,0.0816-0.2542s0.1647-0.1194,0.2831-0.0286c0.1211,0.0929,0.1076,0.2582,0.2366,0.2582,0.1281-0.001,0.1362,0.0747,0.227-0.0462,0.0903-0.1172,0.0871-0.2026,0.0609-0.3196-0.0258-0.1122,0.0007-0.2314,0.0594-0.3736,0.0364-0.1478,0.0824-0.2578,0.1724-0.3363,0.0888-0.0789,0.1324-0.1482,0.1297-0.2982-0.0046-0.1487,0.0294-0.063-0.1186-0.1644-0.144-0.1011-0.2222,0.0667-0.3717,0.0703-0.1504,0.003-0.2342-0.1564-0.2342-0.1564s-0.0404-0.1878,0.0838-0.2725c0.1232-0.0862,0.2785-0.0234,0.3165-0.1454,0.0378-0.1221,0.1124-0.104,0.0277-0.2257-0.0831-0.1235-0.1678-0.1503-0.2855-0.1597-0.1165-0.01-0.2231-0.0726-0.3379-0.1709-0.1281-0.0806-0.2208-0.1596-0.2677-0.2698-0.045-0.108-0.0987-0.1714-0.2436-0.2149-0.1429-0.0412-0.0505-0.0496-0.193,0.0599-0.1415,0.1076-0.0089,0.2342-0.0481,0.3777-0.0422,0.1454-0.2135,0.1569-0.2135,0.1569"/><path fill-rule="evenodd" fill="#e2bc4b" d="m34.03,567.62-0.3023,0.053,0.0508-0.285-0.3054,0.0312,0-0.4352,0.3054,0.0813,0.0999-0.1447,0.0607-0.0586,0-0.1437s-0.1296-0.01-0.1606-0.0678c0,0-1.3592,0.1206-2.4494-0.6892l-0.0717-0.2121s0.7187,0.5159,2.399,0.5874l0.0089-0.1223s-1.5577-0.0202-2.4883-0.6564l-0.0301-0.2337s0.8687,0.5367,2.5005,0.5657l0.0803-0.01,0.0818-0.0602,0.0274-0.0804-0.1408-0.0629-0.1916-0.0271-0.1422,0.0392,0.0095-0.2829,0.0514-0.3034,0.0294-0.162v-0.1717l0.1439,0.1206,0.1591,0.0298,0.0727-0.0202s0-0.0696,0.0086-0.1711c0.0128-0.102-0.0394-0.2724-0.0394-0.2724l-0.1709-0.122s-0.2436-0.0714-0.3451-0.0211c-0.1029,0.0494-0.2506,0.1929-0.2506,0.4263,0,0.2319,0.057,0.0907,0.057,0.0907l0.1001-0.0321h0.0744l-0.0108,0.1432-0.0636,0.2325-0.1176,0.1038-0.1036-0.1038s-0.0491,0.4766-0.4535,0.4552c0,0-0.1321-0.4068,0.061-0.7388l-0.1827-0.0103-0.0501-0.1719,0.1408-0.2517,0.112-0.0725,0.0796,0.1745,0.0114,0.0992s0.0408,0.0221,0.0803-0.0308c0.0414-0.0491,0.1521-0.4665,0.0097-0.5659-0.1426-0.1004-0.2313-0.1298-0.356-0.0802-0.1187,0.0498-0.6348,0.2027-0.5524,0.5363l0.0396,0.0893,0.1297-0.0286,0.0824-0.0306,0.0095,0.1105s-0.1424,0.5365-0.455,0.3456l-0.0308,0.2745-0.0505,0.1291-0.2724-0.1186-0.0832-0.0835,1.0547-2.1445s0.6383,0.3741,1.7391,0.3741c1.1031,0,1.7407-0.3741,1.7407-0.3741l1.0507,2.1445-0.0797,0.0835-0.2739,0.1186-0.0496-0.1291-0.0286-0.2745c-0.3166,0.1909-0.4559-0.3456-0.4559-0.3456l0.0077-0.1105,0.0808,0.0306,0.1322,0.0286,0.0411-0.0893c0.0802-0.3336-0.4375-0.4865-0.5567-0.5363-0.123-0.0496-0.213-0.0202-0.3555,0.0802-0.1408,0.0994-0.0287,0.5168,0.0094,0.5659,0.0421,0.0529,0.0823,0.0308,0.0823,0.0308l0.0113-0.0992,0.0804-0.1745,0.1112,0.0725,0.1406,0.2517-0.0508,0.1719-0.1827,0.0103c0.1923,0.332,0.0609,0.7388,0.0609,0.7388-0.4034,0.0214-0.4556-0.4552-0.4556-0.4552l-0.0997,0.1038-0.1218-0.1038-0.0604-0.2325-0.0108-0.1432h0.0712l0.1021,0.0321s0.0599,0.1412,0.0599-0.0907c0-0.2334-0.1502-0.3769-0.2532-0.4263-0.1004-0.0503-0.343,0.0211-0.343,0.0211l-0.1701,0.122s-0.0523,0.1704-0.0438,0.2724c0.0135,0.1015,0.0135,0.1711,0.0135,0.1711l0.0683,0.0202,0.1612-0.0298,0.143-0.1206v0.1717l0.0296,0.162,0.0522,0.3034,0.0092,0.2829-0.1423-0.0392-0.1913,0.0271-0.1434,0.0629,0.0317,0.0804,0.0813,0.0602,0.0809,0.01c1.6286-0.029,2.4987-0.5657,2.4987-0.5657l-0.0298,0.2337c-0.9323,0.6362-2.4886,0.6564-2.4886,0.6564l0.0086,0.1223c1.6806-0.0715,2.3991-0.5874,2.3991-0.5874l-0.071,0.2121c-1.0928,0.8098-2.45,0.6892-2.45,0.6892-0.0292,0.0579-0.1599,0.0678-0.1599,0.0678v0.1437l0.0602,0.0586,0.0997,0.1447,0.3039-0.0813v0.4352l-0.3039-0.0312,0.0521,0.285"/><path fill-rule="evenodd" fill="#e2bc4b" d="m37.266,557.68,0.8834-1.0227-1.1748,0.575"/><path fill-rule="nonzero" fill="#e2bc4b" d="m37.347,561.35,2.9344,0.9363-2.7035-1.5058"/><path fill-rule="nonzero" fill="#e2bc4b" d="m37.757,559.89,3.0694-0.2814-3.0747-0.3302"/><path fill-rule="nonzero" fill="#e2bc4b" d="m37.619,558.48,2.6629-1.5513-2.8937,0.9577"/><path fill-rule="nonzero" fill="#e2bc4b" d="m37.663,560.53,1.0095,0.079-0.9298-0.4762"/><path fill-rule="nonzero" fill="#e2bc4b" d="m37.742,559.07,0.9604-0.4671-1.0437,0.0544"/><path fill-rule="nonzero" fill="#e2bc4b" d="m30.576,557.8-2.9318-0.9359,2.7014,1.5046"/><path fill-rule="nonzero" fill="#e2bc4b" d="m30.17,559.27-3.0694,0.2809,3.0758,0.3322"/><path fill-rule="nonzero" fill="#e2bc4b" d="m30.308,560.67-2.6633,1.5503,2.8939-0.9577"/><path fill-rule="nonzero" fill="#e2bc4b" d="m30.266,558.63-1.0105-0.0819,0.9289,0.4752"/><path fill-rule="nonzero" fill="#e2bc4b" d="m30.184,560.09-0.9589,0.465,1.0427-0.0534"/><path fill-rule="nonzero" fill="#e2bc4b" d="m35.62,556.18,0.9409-2.9322-1.5068,2.6999"/><path fill-rule="nonzero" fill="#e2bc4b" d="m34.156,555.77-0.2816-3.0699-0.33,3.0773"/><path fill-rule="nonzero" fill="#e2bc4b" d="m32.75,555.91-1.5508-2.6607,0.9587,2.891"/><path fill-rule="nonzero" fill="#e2bc4b" d="m34.799,555.87,0.0821-1.0133-0.4763,0.9312"/><path fill-rule="nonzero" fill="#e2bc4b" d="m33.332,555.79-0.4663-0.957,0.0563,1.044"/><path fill-rule="evenodd" fill="#e2bc4b" d="m31.411,556.72-1.0429-0.6041,0.7074,0.9505"/><path fill-rule="evenodd" fill="#e2bc4b" d="m30.898,557.26-1.2074-0.4412,0.9888,0.7991"/><path fill-rule="evenodd" fill="#e2bc4b" d="m31.966,556.26-0.964-0.8492,0.5786,1.1753"/><path fill-rule="evenodd" fill="#e2bc4b" d="m36.836,557.07,0.6044-1.0439-0.9496,0.7069"/><path fill-rule="evenodd" fill="#e2bc4b" d="m36.3,556.55,0.4415-1.2102-0.8037,0.9895"/><path fill-rule="evenodd" fill="#e2bc4b" d="m36.5,562.49,1.043,0.6025-0.7069-0.9512"/><path fill-rule="evenodd" fill="#e2bc4b" d="m37.01,561.95,1.2116,0.4418-0.9909-0.8009"/><path fill-rule="evenodd" fill="#e2bc4b" d="m35.946,562.95,0.9607,0.8485-0.5753-1.1746"/><path fill-rule="evenodd" fill="#e2bc4b" d="m31.039,562.11-0.6026,1.0421,0.9531-0.7065"/><path fill-rule="evenodd" fill="#e2bc4b" d="m31.578,562.62-0.4421,1.2085,0.8005-0.9905"/><path fill-rule="evenodd" fill="#e2bc4b" d="m30.63,561.48-0.9029,1.0317,1.1741-0.5766"/><path fill-rule="nonzero" fill="#edc54f" d="m33.99,560.57-0.2947-0.5845-0.5569-0.073,0.4159-0.4021-0.1319-0.6396,0.5676,0.3652,0.5646-0.3652-0.1304,0.6396,0.4154,0.4021-0.5588,0.073"/><path fill-rule="nonzero" fill="#f03c1f" d="m32.438,563.38c-0.0356,0.0921,0.0558,0.2161,0.2089,0.2775,0.1538,0.0612,0.3067,0.0369,0.3432-0.0527,0.0368-0.0924-0.0563-0.2133-0.2069-0.2765-0.1572-0.0631-0.3084-0.0412-0.3452,0.0517"/><path fill-rule="nonzero" fill="#f03c1f" d="m33.734,563.96c0,0.0975,0.1346,0.1764,0.2992,0.1764,0.1629,0,0.2989-0.0789,0.2989-0.1764,0-0.0978-0.136-0.1771-0.2989-0.1771-0.1646,0-0.2992,0.0793-0.2992,0.1771"/><path fill-rule="nonzero" fill="#f03c1f" d="m34.797,563.66c0.0443,0.086,0.2,0.1002,0.3456,0.0262,0.1481-0.0714,0.234-0.2026,0.1907-0.2908-0.0426-0.0866-0.1972-0.0994-0.3442-0.0273-0.1478,0.0753-0.2345,0.2035-0.1921,0.2919"/><path fill-rule="nonzero" fill="#f03c1f" d="m32.552,561.53s0.2551-0.0999,0.3229-0.0804c0.073,0.02,0.1031,0.1326,0.1031,0.1326l0.0087,0.1223s0.0526,0.0795,0.1016,0.1081c0.051,0.0323,0.1426,0.063,0.2012,0.072,0.0618,0.01,0.0822,0,0.1338,0.0397,0.0499,0.0428,0.1615,0.3637-0.0609,0.5278-0.2231,0.1629-0.3955,0.2633-0.5553,0.1629-0.1642-0.1031-0.3358-0.3152-0.3753-0.3554-0.0401-0.0409-0.1309-0.2925-0.1826-0.2925-0.0107-0.0505-0.338-0.1097-0.3869-0.1384-0.0483-0.0317-0.2934-0.1504-0.4289-0.2855-0.1362-0.1364-0.0746-0.3256,0.0349-0.5808,0.1045-0.2534,0.4463-0.2176,0.4971-0.1773,0.0503,0.0411,0.0455,0.062,0.0696,0.1181,0.0218,0.0578,0.0726,0.1401,0.1128,0.182,0.0419,0.044,0.1322,0.0744,0.1322,0.0744l0.1213-0.0159s0.1131,0.002,0.1507,0.0674c0.0351,0.066,0,0.3189,0,0.3189"/><path fill-rule="nonzero" fill="#f03c1f" d="m35.4,561.49s-0.0173-0.2708,0.0229-0.3322c0.0433-0.0623,0.1593-0.0543,0.1593-0.0543l0.1216,0.0276s0.0917-0.0248,0.1377-0.0628c0.0457-0.0375,0.1044-0.1138,0.1336-0.1694,0.0279-0.0545,0.0245-0.0785,0.0818-0.1139,0.0537-0.0332,0.402-0.0412,0.4857,0.2217,0.0869,0.2602,0.1319,0.4544-0.0168,0.576-0.1478,0.1242-0.4075,0.2212-0.4595,0.2486-0.0532,0.0229-0.3228,0.033-0.3425,0.0816-0.0501-0.009-0.209,0.2843-0.2528,0.3216-0.0457,0.0378-0.238,0.2335-0.4113,0.3199-0.1721,0.0884-0.3363-0.0299-0.5467-0.2089-0.211-0.1801-0.0722-0.4913-0.0183-0.5265,0.0585-0.0363,0.0761-0.026,0.138-0.0319,0.0604-0.003,0.1581-0.0253,0.2103-0.0506,0.0564-0.0267,0.1132-0.1019,0.1132-0.1019l0.0204-0.1207s0.0402-0.1055,0.1132-0.1214c0.076-0.0115,0.3102,0.0975,0.3102,0.0975"/><path fill-rule="nonzero" fill="#f03c1f" d="m31.64,558.86s0.1747,0.2125,0.1788,0.2866c0.0022,0.0725-0.0953,0.1346-0.0953,0.1346l-0.1122,0.0467s-0.0602,0.0736-0.0753,0.1305c-0.0116,0.0592-0.0132,0.1554-0.0038,0.2144,0.0079,0.0604,0.0253,0.0785,0.0033,0.1391-0.0235,0.0585-0.2975,0.2662-0.5207,0.1031-0.2216-0.1604-0.3703-0.2933-0.3261-0.4779,0.0461-0.1868,0.1962-0.4154,0.2218-0.4657,0.0242-0.0496,0.2387-0.2159,0.2237-0.2629,0.042-0.0257-0.0007-0.3562,0.0104-0.4111,0.0142-0.0556,0.0539-0.3261,0.1391-0.496,0.0869-0.1683,0.2858-0.1712,0.5604-0.1486,0.2743,0.027,0.3447,0.3621,0.3225,0.421-0.0221,0.06-0.0443,0.0628-0.0914,0.1006-0.0477,0.0407-0.1093,0.1139-0.1365,0.1659-0.0282,0.0501-0.03,0.1483-0.03,0.1483l0.0524,0.1092s0.0328,0.1107-0.0175,0.1649c-0.0504,0.0547-0.3036,0.0973-0.3036,0.0973"/><path fill-rule="nonzero" fill="#f03c1f" d="m33.935,557.19s-0.1473,0.2294-0.2145,0.2532c-0.0696,0.0272-0.1581-0.0467-0.1581-0.0467l-0.0814-0.0922s-0.0881-0.0341-0.1473-0.0282c-0.0585,0.002-0.1497,0.0304-0.2044,0.0595-0.0546,0.0287-0.0654,0.0458-0.1311,0.0458-0.0635-0.005-0.345-0.2018-0.2571-0.4619,0.0799-0.2622,0.162-0.4441,0.3519-0.4576,0.1918-0.0135,0.4535,0.0568,0.512,0.0661,0.0571,0.009,0.2776,0.1611,0.3169,0.1293,0.04,0.0354,0.3424-0.11,0.3977-0.1136,0.0541-0.005,0.3261-0.0517,0.5156-0.0224,0.1867,0.0296,0.2486,0.2193,0.3117,0.4853,0.0621,0.2695-0.2347,0.4395-0.299,0.4378-0.064-0.001-0.0744-0.0226-0.128-0.053-0.0518-0.0329-0.1399-0.0709-0.1972-0.0801-0.0592-0.0125-0.149,0.0154-0.149,0.0154l-0.0873,0.0867s-0.0967,0.063-0.1615,0.0315c-0.0691-0.0294-0.1899-0.2549-0.1899-0.2549"/><path fill-rule="nonzero" fill="#f03c1f" d="m36.26,558.79s-0.2652-0.0644-0.3086-0.1244c-0.0469-0.0595-0.0045-0.1661-0.0045-0.1661l0.063-0.103s0.0063-0.0963-0.0159-0.1512c-0.0238-0.052-0.0808-0.1297-0.1215-0.174-0.0445-0.0445-0.0684-0.0476-0.0826-0.1114-0.0178-0.0619,0.0831-0.3892,0.3577-0.3892,0.2734,0,0.4737,0.0178,0.5457,0.1964,0.0715,0.1754,0.0833,0.4518,0.095,0.5066,0.0056,0.0554-0.0661,0.3156-0.0269,0.3443-0.019,0.0474,0.2092,0.2852,0.2311,0.3382,0.0204,0.0541,0.1497,0.2965,0.1812,0.4823,0.0279,0.1889-0.1314,0.3086-0.368,0.4501-0.2364,0.1408-0.4891-0.0891-0.5069-0.149-0.0183-0.0626,0-0.0778,0.0156-0.1372,0.0137-0.0607,0.021-0.1567,0.0118-0.2137-0.0075-0.0585-0.0628-0.136-0.0628-0.136l-0.1088-0.0561s-0.0893-0.0766-0.0809-0.1483c0.0106-0.07,0.1863-0.2583,0.1863-0.2583"/><path stroke-linejoin="miter" d="m37.559,568.93,0-5.8662,7.6047,0" stroke="#231f20" stroke-linecap="butt" stroke-miterlimit="3.86400008" stroke-dasharray="none" stroke-width="0.31869999" fill="none"/><path stroke-linejoin="miter" d="m44.558,556.26-6.9993,0,0-7.4023" stroke="#231f20" stroke-linecap="butt" stroke-miterlimit="3.86400008" stroke-dasharray="none" stroke-width="0.31869999" fill="none"/><path stroke-linejoin="miter" d="m30.435,548.78,0,7.486-6.9993,0" stroke="#231f20" stroke-linecap="butt" stroke-miterlimit="3.86400008" stroke-dasharray="none" stroke-width="0.31869999" fill="none"/><path stroke-linejoin="miter" d="m22.788,563.06,7.6473,0,0,5.8662" stroke="#231f20" stroke-linecap="butt" stroke-miterlimit="3.86400008" stroke-dasharray="none" stroke-width="0.31869999" fill="none"/><path fill-rule="nonzero" fill="#e2bc4b" d="m28.186,575.73-0.4137-0.4287-0.0296-3.9472s0.3331-0.3991,1.4631-0.4877c1.1316-0.0888,3.1493,0.266,3.1493,0.266l1.0055-0.0886,0.2807-0.1179-0.0294-0.2518,0.0368-0.3249,0.1846-0.2366,0.5102,0.0149,0.1772,0.2217-0.0072,0.3695-0.0145,0.1771,0.4285,0.1629,0.3398,0.0443,1.0353-0.0149,0.9897-0.1923,1.2721-0.059s0.7833,0.0367,1.1234,0.1329c0.3394,0.0963,0.5767,0.2363,0.5767,0.2363l0.1326,0.163-0.0147,3.8288-0.4433,0.5322-0.0443-0.9163,0.059-2.824-0.0147-0.3548-0.4728-0.192-2.0401-0.0149-1.5232,0.1037-0.8131-0.0888-0.5909-0.2369-0.4438-0.3102-0.7688,0.5471-1.1532,0.1442-2.3797-0.2037-0.9756,0.0301-0.621,0.251"/><path fill-rule="nonzero" fill="#231f20" d="m34.04,570.75c-0.028,0-0.0547,0.009-0.0765,0.026-0.221,0.1678-0.0995,0.2484-0.5924,0.4956-0.3137,0.1571-0.8259,0.2074-1.2076,0.2074-0.3231,0-0.6904-0.0248-1.0937-0.0738-0.5319-0.0647-1.0122-0.0975-1.4284-0.0975-1.0595,0-1.378,0.2101-1.4102,0.2344l-0.0939,0.0453c-0.0438,0.0209-0.0703,0.0647-0.0703,0.1134l0.0198,4.0225c0.0009,0.0492,0.0286,0.0929,0.0734,0.1136,0.044,0.021,0.0963,0.0138,0.1335-0.018,0.1472-0.1238,0.2347-0.2039,0.2579-0.2368,0.0587-0.0441,0.5244-0.2933,1.2973-0.2933,0.3573,0,0.737,0.0526,1.1291,0.1553,0.2886,0.0753,0.5898,0.1144,0.8931,0.1144,1.267,0,2.2019-0.6519,2.2406-0.6801,0.0337-0.0232,0.0532-0.0618,0.0532-0.1022v-3.8998c0-0.0479-0.0262-0.0915-0.0698-0.1134-0.0181-0.008-0.037-0.013-0.0551-0.013"/><path fill-rule="nonzero" fill="#231f20" d="m34.107,570.75c-0.0192,0-0.0379,0.005-0.056,0.013-0.0432,0.0219-0.0705,0.0655-0.0705,0.1134v3.8998c0,0.0404,0.0202,0.079,0.0539,0.1022,0.0389,0.0282,0.9742,0.6801,2.2398,0.6801,0.3044,0,0.6046-0.0391,0.8939-0.1144,0.3919-0.1027,0.7715-0.1553,1.1294-0.1553,0.7731,0,1.2384,0.2492,1.3123,0.3103,0.0082,0.0159,0.0946,0.096,0.2426,0.2198,0.0371,0.0318,0.09,0.039,0.1331,0.018,0.0445-0.0207,0.0729-0.0644,0.0737-0.1136l0.0202-4.0225c0-0.0487-0.0267-0.0925-0.0696-0.1134l-0.1121-0.0566c-0.015-0.013-0.3337-0.2231-1.3935-0.2231-0.4156,0-0.8966,0.0328-1.4278,0.0975-0.4029,0.049-0.7707,0.0738-1.0933,0.0738-0.3824,0-1.0268-0.0988-1.2504-0.2251-0.4367-0.2461-0.3163-0.3011-0.5494-0.4779-0.0226-0.0171-0.0496-0.026-0.0763-0.026"/><path fill-rule="nonzero" fill="#231f20" d="m25.384,570.99,0,0c-0.1102,0-0.1796,0.0886-0.1984,0.1769-0.017,0.0636-0.0885,0.2549-0.2062,0.3219-0.1663,0.0947-0.1923,0.2635-0.1801,0.3658-0.0033,0.0178-0.0043,0.0349-0.0033,0.0481,0.0106,0.079,0.0698,0.1564,0.1817,0.2359,0.1105,0.0802,0.1971,0.2783,0.2185,0.3416,0.0422,0.1225,0.2215,0.2197,0.3736,0.0828,0.0333-0.0285,0.0602-0.0566,0.085-0.0828,0.0662-0.0694,0.0886-0.0929,0.1741-0.0929h0.4084,0.853,0.0009c0.034,0,0.0655-0.0133,0.0891-0.0374,0.0232-0.0232,0.0366-0.0553,0.0366-0.0885l-0.007-0.8918c-0.0007-0.0691-0.0484-0.1336-0.1263-0.1237-0.0009,0-1.1178,0.008-1.2552,0-0.0778-0.003-0.118-0.0371-0.2333-0.1443l-0.0306-0.0287c-0.0602-0.0562-0.1198-0.0829-0.1805-0.0829"/><path fill-rule="nonzero" fill="#231f20" d="m25.385,572.96,0,0c-0.1109,0-0.1803,0.0893-0.1993,0.1773-0.0163,0.0638-0.0885,0.2557-0.2063,0.3226-0.1653,0.0944-0.1911,0.2651-0.18,0.3637-0.0031,0.0181-0.0044,0.0349-0.0028,0.0477,0.0098,0.0792,0.0685,0.1571,0.1814,0.2378,0.1105,0.0794,0.1971,0.279,0.2183,0.3422,0.0431,0.1233,0.2215,0.2174,0.3738,0.0831,0.0331-0.0299,0.0602-0.0578,0.0845-0.0836,0.0665-0.0696,0.0883-0.0926,0.1741-0.0926l0.4089-0.0005,0.8537,0.0005c0.0333,0,0.0657-0.0135,0.0891-0.0368,0.0234-0.0236,0.0374-0.0561,0.0374-0.0893l-0.0075-0.8907c-0.001-0.0686-0.0573-0.1239-0.1257-0.1239h-0.0007c0-0.0003-1.1214,0.006-1.2574,0.0004-0.0768-0.004-0.1174-0.0391-0.2354-0.1509l-0.026-0.0237c-0.0609-0.0564-0.1199-0.0833-0.1801-0.0833"/><path fill-rule="nonzero" fill="#231f20" d="m42.761,570.99c-0.0614,0-0.1199,0.0267-0.1805,0.0829l-0.0311,0.0287c-0.115,0.1072-0.155,0.1411-0.2313,0.1443-0.1425,0.008-1.2572,0-1.2572,0h-0.0007c-0.0686,0-0.1244,0.0551-0.1256,0.1237l-0.0072,0.8918c0,0.0332,0.0137,0.0653,0.0365,0.0885,0.0236,0.0241,0.0561,0.0374,0.0891,0.0374h0.0002,0.854,0.4087c0.0857,0,0.1079,0.0235,0.1743,0.0929,0.0246,0.0262,0.0515,0.0543,0.0845,0.0828,0.1521,0.1371,0.3314,0.0395,0.3736-0.0813,0.0238-0.0693,0.1085-0.2632,0.22-0.3436,0.1104-0.079,0.1701-0.1564,0.1798-0.2354,0.0017-0.0132,0.0007-0.0303-0.0029-0.0481,0.0132-0.1023-0.0125-0.2711-0.1801-0.3658-0.1179-0.067-0.1911-0.2632-0.2072-0.3263-0.0178-0.0839-0.0862-0.1725-0.1969-0.1725"/><path fill-rule="nonzero" fill="#231f20" d="m42.76,572.96c-0.0602,0-0.1189,0.0269-0.1791,0.0823l-0.0267,0.0247c-0.117,0.1118-0.1589,0.1474-0.2364,0.1509-0.1326,0.005-1.2565-0.0007-1.2565-0.0004h-0.0004c-0.0689,0-0.125,0.0553-0.1262,0.1239l-0.0067,0.8907c0,0.0332,0.0135,0.0657,0.0363,0.0893,0.0239,0.0233,0.0561,0.0368,0.0896,0.0368l0.8537-0.0005,0.4085,0.0005c0.0862,0,0.1088,0.023,0.1748,0.0926,0.024,0.0258,0.0507,0.0537,0.0832,0.0827,0.1558,0.1371,0.3324,0.0404,0.3748-0.0802,0.0236-0.0698,0.1083-0.2651,0.219-0.3442,0.112-0.0807,0.1709-0.1586,0.1806-0.2378,0.0021-0.0128,0.0007-0.0296-0.0034-0.0477,0.0123-0.0986-0.0135-0.2693-0.1796-0.3637-0.1174-0.0669-0.1887-0.2588-0.2072-0.3272-0.0178-0.0834-0.0862-0.1727-0.1983-0.1727"/><path fill-rule="nonzero" fill="#231f20" d="m34.384,569.48c-0.1437,0-0.2496,0.0149-0.2496,0.0149l-0.1386-0.0007c-0.0011-0.001-0.1014-0.0142-0.2347-0.0142-0.6851,0-0.8112,0.3139-0.8257,0.5007-0.0057,0.0794,0.0085,0.1497,0.0326,0.2099l-5.8709-0.1033c-0.0402-0.007-0.0669,0.0128-0.0903,0.0361-0.0243,0.0238-0.0383,0.0566-0.0383,0.0902l0.0275,4.5586c0.0046,0.0514,0.0395,0.0949,0.0878,0.1103-0.0012,0,0.07,0.0333,0.1906,0.1748,0.1784,0.2096,0.3178,0.2976,0.3284,0.3008,0.0395,0.0121,0.0827,0.005,0.1158-0.02,0.0326-0.025,0.051-0.065,0.0485-0.1061l-0.006-0.11-0.012-3.74c0.082-0.0843,0.4653-0.4956,1.7065-0.4956,0.468,0,1.1369,0.0455,1.7374,0.1353,0.5214,0.0815,0.9831,0.1228,1.3696,0.1228,0.9621,0,1.1354-0.1518,1.1773-0.2121,0.0283-0.0403,0.0341-0.0929,0.0149-0.1389l-0.0422-0.1045c-0.0179-0.0328-0.0923-0.1538,0.0083-0.3663,0.0585-0.125,0.1897-0.1601,0.2861-0.169,0.0058,0.001,0.0116,0.001,0.0173,0.001h0.0956,0.0082c0.1124,0.009,0.2381,0.0456,0.2959,0.1678,0.0996,0.2125,0.0243,0.3335,0.0219,0.3388l-0.0573,0.132c-0.0193,0.046-0.0123,0.0986,0.0156,0.1389,0.0409,0.0603,0.2037,0.2202,1.1662,0.2202,0.3868,0,0.8473-0.0412,1.3701-0.123,0.5991-0.0893,1.1409-0.1345,1.6088-0.1345,1.2353,0,1.7244,0.3998,1.8096,0.4876l-0.0178,3.8466c-0.0019,0.0411,0.0166,0.0811,0.0498,0.1061,0.0327,0.0253,0.0756,0.0321,0.1151,0.02,0.011-0.003,0.1855-0.0912,0.3641-0.3008,0.1238-0.1452,0.1953-0.1765,0.1957-0.1765,0.0431-0.0183,0.0787-0.0611,0.0824-0.1086l0.0091-0.1094,0.0183-4.4492c0-0.0336-0.013-0.0664-0.0376-0.0902-0.0243-0.0233-0.0625-0.0458-0.0905-0.0361l-5.8704,0.1033c0.0236-0.0602,0.0383-0.1305,0.0318-0.2099-0.0137-0.1868-0.1403-0.5007-0.8254-0.5007"/><path fill-rule="nonzero" fill="#FFF" d="m33.493,571.42c0.0432-0.0135,0.1305-0.0677,0.52-0.2843v3.5794c-0.3103,0.1324-1.1217,0.5986-2.1424,0.5986-0.2815,0-0.5604-0.0361-0.8289-0.1061-0.4127-0.108-0.814-0.1629-1.1931-0.1629-0.9036,0-1.5166,0.3179-1.5742,0.3995-0.0017,0.002-0.004,0.005-0.0074,0.008l-0.0188-3.7474,0.0424-0.0207c0.0187-0.0114,0.3786-0.1965,1.3508-0.1965,0.4063,0,0.8762,0.0321,1.3975,0.0957,1.1587,0.1397,2.0132,0.0825,2.4541-0.1637"/><path fill-rule="nonzero" fill="#e2bc4b" d="m24.958,571.87c0.001-0.0152,0.0007-0.0308-0.0021-0.0464-0.0025-0.0133-0.0135-0.0932,0.0584-0.1343,0.2025-0.1144,0.3041-0.358,0.342-0.4725l0.0099,0.008c0.1348,0.1259,0.2412,0.2253,0.4318,0.2328,0.1151,0.007,0.8479,0.003,1.1773,0.001l0.0055,0.3234-0.0012,0.3778-0.7177-0.0008-0.4516,0.0008c-0.2115,0.001-0.3066,0.1008-0.3902,0.1879-0.0168,0.0186-0.036,0.0383-0.0577,0.0585-0.0399-0.1015-0.1483-0.3404-0.3259-0.4686-0.0447-0.0318-0.0684-0.0549-0.0785-0.0679"/><path fill-rule="nonzero" fill="#e2bc4b" d="m24.958,573.84c0.001-0.0157,0.0007-0.031-0.0027-0.0469-0.0019-0.0131-0.0127-0.0918,0.0597-0.1327,0.2025-0.1153,0.3041-0.3596,0.3418-0.4739l0.0027,0.002c0.1367,0.13,0.2455,0.2321,0.4369,0.2419,0.124,0.004,0.8783,0.001,1.2073,0.0005l0.0046,0.3222v0.3776l-0.7464-0.0007-0.4516,0.0007c-0.212,0-0.3075,0.0999-0.3909,0.1879-0.0183,0.0186-0.0365,0.0381-0.0578,0.0583-0.0391-0.1008-0.1475-0.3416-0.3253-0.4686-0.0453-0.0326-0.0682-0.0557-0.0783-0.0686"/><path fill-rule="nonzero" fill="#656263" d="m33.154,573.87c-0.5322,0.2412-1.1943,0.5413-2.198,0.2782-0.6256-0.1636-1.4577-0.2676-1.9158-0.069l0.1,0.2313c0.3291-0.1431,1.0174-0.111,1.752,0.0816,1.0898,0.2871,1.8268-0.0482,2.3647-0.293"/><path fill-rule="nonzero" fill="#656263" d="m33.154,572.81c-0.5322,0.2412-1.1943,0.5416-2.198,0.2788-0.6256-0.1637-1.4577-0.2684-1.9158-0.0703l0.1,0.2313c0.3291-0.1421,1.0174-0.11,1.752,0.0818,1.0898,0.2872,1.8268-0.0484,2.3647-0.2926"/><path fill-rule="nonzero" fill="#656263" d="m33.154,571.93c-0.5322,0.2416-1.1943,0.5417-2.198,0.2792-0.6256-0.1644-1.4577-0.2684-1.9158-0.0703l0.1,0.2313c0.3291-0.1432,1.0174-0.1107,1.752,0.0818,1.0898,0.2869,1.8268-0.0484,2.3647-0.2929"/><path fill-rule="nonzero" fill="#FFF" d="m34.144,574.71,0-3.5797c0.3778,0.2173,0.4652,0.2708,0.5085,0.2846,0.4602,0.2503,1.3041,0.3027,2.4537,0.1635,0.5218-0.0636,0.9926-0.0956,1.3975-0.0956,0.9732,0,1.3195,0.2435,1.3231,0.2452l0.0573,0.0293-0.018,3.7476c-0.0048-0.005-0.0082-0.009-0.0104-0.0112-0.0544-0.0779-0.6559-0.4541-1.5588-0.4541-0.3786,0-0.7806,0.0549-1.1934,0.1629-0.2681,0.07-0.5468,0.105-0.8294,0.1059-1.1277,0.003-2.1301-0.5984-2.1301-0.5984"/><path fill-rule="nonzero" fill="#e2bc4b" d="m41.916,571.47c0.2094,0,0.3834-0.001,0.4347-0.005,0.1882-0.007,0.2946-0.1068,0.4299-0.2327l0.0094-0.009c0.0399,0.1184,0.141,0.3591,0.342,0.4734,0.0773,0.0441,0.059,0.1329,0.059,0.1337-0.0036,0.0156-0.0039,0.0312-0.002,0.0464-0.0108,0.0133-0.0339,0.0356-0.0784,0.0676-0.1796,0.13-0.2884,0.3714-0.3269,0.4718-0.0229-0.0243-0.0407-0.0438-0.0575-0.0614-0.0835-0.0871-0.1784-0.1865-0.3902-0.1879l-0.4503-0.0005-0.7173,0.0005,0.006-0.7012c0.1892,0.001,0.4566,0.004,0.7416,0.004"/><path fill-rule="nonzero" fill="#e2bc4b" d="m41.915,573.44c0.2089,0,0.382-0.0009,0.4328-0.002,0.1937-0.01,0.3013-0.1117,0.4381-0.2417l0.0036-0.002c0.0399,0.1186,0.141,0.3596,0.342,0.4739,0.0717,0.0409,0.0611,0.1191,0.0582,0.1348-0.0021,0.014-0.0028,0.0296-0.0004,0.0441-0.0109,0.0128-0.0337,0.0366-0.0802,0.0698-0.1786,0.127-0.2867,0.3695-0.3257,0.4708-0.0214-0.0241-0.0397-0.0429-0.057-0.0609-0.0833-0.0886-0.1784-0.188-0.3916-0.188l-0.4499-0.0009-0.7389,0.0009,0.0055-0.6997c0.1897,0.0008,0.479,0.002,0.7635,0.002"/><path fill-rule="nonzero" fill="#FFF" d="m34.151,569.74c0.0209-0.001,0.1116-0.0136,0.2333-0.0136,0.2068,0,0.5568,0.0349,0.5741,0.2685,0.0106,0.128-0.103,0.2212-0.1038,0.2214-0.0423,0.0342-0.0589,0.0908-0.0406,0.1422,0.0183,0.0494,0.0652,0.0833,0.1186,0.0833,0.0005,0,0.0015,0,0.0022-0.0004l6.0452-0.1055-0.0202,4.3435c-0.0535,0.0353-0.1859,0.0979-0.2805,0.2094-0.051,0.0597-0.1229,0.1069-0.1802,0.1424l0.012-3.6955c0-0.0225-0.0065-0.0447-0.0176-0.0645-0.033-0.0558-0.3598-0.5443-1.9369-0.5443-0.4802,0-1.0343,0.0466-1.6466,0.1371-0.5108,0.0804-0.9585,0.1206-1.332,0.1206-0.6047,0-0.8675-0.1055-0.9665-0.1647l0.0005-0.003c0.0431-0.0537,0.1079-0.2578-0.012-0.5135-0.0867-0.184-0.2747-0.2899-0.5154-0.2899-0.2643,0-0.452,0.1059-0.539,0.2899-0.1105,0.2347-0.0642,0.4261-0.0113,0.5176-0.0969,0.057-0.3599,0.1634-0.9662,0.1634-0.374,0-0.8216-0.0402-1.3317-0.1201-0.6136-0.091-1.1662-0.1376-1.6474-0.1376-1.5766,0-1.9514,0.4885-1.9843,0.5443-0.0118,0.0198-0.0178,0.042-0.0178,0.0645l0.0123,3.6955c-0.0581-0.0355-0.0819-0.0827-0.1329-0.1424-0.0944-0.1115-0.24-0.1741-0.294-0.2092l-0.0035-0.0421-0.0171-4.3016,6.0594,0.1055c0.0005,0.0004,0.0014,0.0004,0.0019,0.0004,0.0537,0,0.1006-0.0339,0.1187-0.0833,0.0182-0.0514,0.0017-0.108-0.0407-0.1422,0,0-0.1138-0.0941-0.1045-0.2214,0.0183-0.2336,0.3678-0.2685,0.5748-0.2685,0.1211,0,0.2126,0.0124,0.2156,0.0128"/><path fill-rule="nonzero" fill="#656263" d="m34.992,573.87-0.1044,0.2291c0.5387,0.2448,1.2752,0.5791,2.3658,0.293,0.7346-0.1926,1.4226-0.2247,1.7521-0.0816l0.0999-0.2313c-0.4581-0.1986-1.2899-0.0946-1.9155,0.069-1.0037,0.2631-1.6657-0.037-2.1979-0.2782"/><path fill-rule="nonzero" fill="#656263" d="m34.992,572.81-0.1044,0.229c0.5387,0.2442,1.2752,0.5788,2.3658,0.2926,0.7346-0.1918,1.4226-0.2239,1.7521-0.0818l0.0999-0.2313c-0.4581-0.1984-1.2899-0.0934-1.9155,0.0703-1.0037,0.2626-1.6657-0.0378-2.1979-0.2788"/><path fill-rule="nonzero" fill="#656263" d="m34.992,571.93-0.1044,0.2291c0.5387,0.2445,1.2752,0.5791,2.3658,0.2929,0.7346-0.1925,1.4226-0.225,1.7521-0.0818l0.0999-0.2313c-0.4581-0.1986-1.2899-0.0941-1.9155,0.0703-1.0037,0.2625-1.6657-0.0376-2.1979-0.2792"/><path fill-rule="nonzero" fill="#FFF" d="m28.186,575.73-0.4871-0.5399"/><path stroke-linejoin="miter" d="m28.186,575.73-0.4871-0.5399" stroke="#231f20" stroke-linecap="butt" stroke-miterlimit="4" stroke-dasharray="none" stroke-width="0.17739999" fill="none"/><path fill-rule="nonzero" fill="#FFF" d="m39.94,575.73,0.4876-0.5399"/><path stroke-linejoin="miter" d="m39.94,575.73,0.4876-0.5399" stroke="#231f20" stroke-linecap="butt" stroke-miterlimit="4" stroke-dasharray="none" stroke-width="0.17739999" fill="none"/></g></g></svg>
